<svg width="578" height="234" viewBox="0 0 578 234" fill="none" xmlns="http://www.w3.org/2000/svg">
<path d="M3.61838 211.236C7.0261 218.438 14.9026 226.316 22.315 229.955L28.1078 232.8L28.3167 232.903H28.5494H288.499H548.448H548.681L548.89 232.8L554.513 230.038C562.049 226.338 569.474 218.797 573.632 210.672L576.888 204.309L576.998 204.094V203.852L576.997 115.282C576.997 90.9242 576.927 68.8493 576.815 52.9057C576.758 44.9345 576.691 38.4933 576.617 34.065C576.58 31.8519 576.54 30.1362 576.5 28.9819C576.479 28.4073 576.458 27.96 576.436 27.6569C576.425 27.5114 576.412 27.3714 576.395 27.2607C576.389 27.2224 576.371 27.1102 576.326 26.9924L576.325 26.9891C576.312 26.9546 576.232 26.7356 576.017 26.5592C575.907 26.4689 575.732 26.367 575.506 26.3383C575.388 26.2129 575.224 26.0124 575.019 25.7246C574.494 24.9866 573.827 23.855 573.157 22.5091C571.3 18.7845 568.432 14.9306 565.22 11.611C562.012 8.29524 558.408 5.4581 555.049 3.81358L549.516 1.10393L549.307 1.00182L549.075 1.00185L288.311 1.03892L27.5475 1.07598L27.3108 1.07602L27.0991 1.18201L21.7459 3.86262C18.4014 5.53725 14.6609 8.58287 11.3631 12.0556C8.06234 15.5314 5.13071 19.5134 3.45068 23.1175C3.45067 23.1176 3.45067 23.1176 3.45066 23.1176L1.11564 28.1262L1.02185 28.3274L1.02183 28.5494L1.01181 117.014L1.00179 205.479L1.00177 205.704L1.09799 205.908L3.61835 211.236L3.61838 211.236ZM574.664 26.6271C574.665 26.6264 574.666 26.6257 574.666 26.625L574.664 26.6271ZM576.081 28.0437C576.079 28.046 576.076 28.0483 576.074 28.0507C576.076 28.0484 576.079 28.0461 576.081 28.0437Z" stroke="#9FC0F8" stroke-width="2"/>
</svg>
