<svg width="1049" height="396" viewBox="0 0 1049 396" fill="none" xmlns="http://www.w3.org/2000/svg">
<path d="M1.39368 51.4992L1.45585 51.3317L4.12662 44.1351C4.12663 44.1351 4.12663 44.1351 4.12664 44.1351C11.49 24.2901 28.4758 8.6264 48.8514 2.8904L1.39368 51.4992ZM1.39368 51.4992L1.39335 51.6779M1.39368 51.4992L1.39335 51.6779M1.39335 51.6779L1.12727 194.756C1.11201 202.928 1.09658 210.653 1.08199 217.959C0.955084 281.498 0.89157 313.3 1.55187 330.571C1.91977 340.193 2.51387 345.387 3.47439 349.074C4.24286 352.024 5.2514 354.009 6.48338 356.433C6.79733 357.051 7.12579 357.697 7.46848 358.395C15.5798 374.918 32.9804 388.553 51.673 393.079C51.8206 393.115 52.0125 393.135 52.1815 393.149C52.3731 393.166 52.6166 393.182 52.907 393.197C53.4888 393.228 54.2857 393.258 55.2868 393.287C57.2905 393.345 60.1346 393.402 63.7603 393.456C71.0131 393.565 81.4083 393.666 94.4954 393.759C120.67 393.945 157.622 394.1 201.758 394.224C290.029 394.473 407.039 394.597 524.049 394.597C641.059 394.597 758.069 394.473 846.34 394.224C890.476 394.1 927.427 393.945 953.602 393.759C966.69 393.666 977.085 393.565 984.338 393.456C987.963 393.402 990.807 393.345 992.811 393.287C993.812 393.258 994.609 393.228 995.191 393.197C995.481 393.182 995.725 393.166 995.916 393.149C996.085 393.135 996.277 393.115 996.425 393.079C1000.42 392.112 1005.65 390.034 1010.6 387.609C1015.55 385.185 1020.31 382.372 1023.33 379.897C1033.86 371.28 1041.81 359.146 1045.9 345.465C1046.77 342.545 1047.21 338.49 1047.48 318.774C1047.75 298.991 1047.84 263.319 1047.96 197.016C1048.03 157.894 1048 122.266 1047.89 96.3792C1047.84 83.4362 1047.77 72.9265 1047.68 65.6323C1047.64 61.9859 1047.59 59.1391 1047.54 57.1925C1047.51 56.2205 1047.48 55.4653 1047.46 54.9446C1047.44 54.6866 1047.43 54.4721 1047.41 54.3129C1047.4 54.2368 1047.39 54.1499 1047.38 54.069C1047.37 54.0317 1047.35 53.9645 1047.33 53.8889C1047.31 53.8516 1047.29 53.7862 1047.25 53.7118C1047.22 53.6621 1047.14 53.5413 1047.01 53.4287C1047 53.4258 1047 53.4225 1047 53.419C1046.96 53.3667 1046.91 53.2772 1046.84 53.1418C1046.7 52.8726 1046.53 52.4902 1046.35 52.0128C1046 51.062 1045.61 49.8067 1045.28 48.4841C1042.71 38.1291 1037.11 28.9405 1027.94 19.9074L1027.23 20.6201M1.39335 51.6779L1027.23 20.6201M1027.23 20.6201L1027.94 19.9073C1018.51 10.6254 1009.61 5.48316 997.789 2.51569M1027.23 20.6201L997.789 2.51569M997.789 2.51569C996.989 2.31461 995.555 2.15811 992.931 2.02177M997.789 2.51569L992.931 2.02177M992.931 2.02177C990.278 1.8839 986.33 1.76415 980.445 1.65997M992.931 2.02177L980.445 1.65997M980.445 1.65997C968.673 1.45159 949.107 1.30495 916.543 1.20376M980.445 1.65997L916.543 1.20376M916.543 1.20376C851.411 1.00135 734.259 0.980672 523.405 1.01219M916.543 1.20376L523.405 1.01219M523.405 1.01219C299.773 1.04567 182.702 1.08285 120.789 1.32318M523.405 1.01219L120.789 1.32318M120.789 1.32318C89.8343 1.44333 72.6576 1.61428 62.8423 1.86124M120.789 1.32318L62.8423 1.86124M62.8423 1.86124C53.0739 2.10702 50.4983 2.42665 48.8515 2.89038L62.8423 1.86124Z" stroke="#9FC0F8" stroke-width="2"/>
</svg>
